/* XPM */
static char *_df5c04e1a284c1dc242b29522bf5ae8vYdb84qNNDCn4UFG[] = {
/* columns rows colors chars-per-pixel */
"64 64 256 2 ",
"   c #0D0C0C",
".  c #130D0C",
"X  c #1A0C06",
"o  c #15120E",
"O  c #1B120D",
"+  c #1B1004",
"@  c #180E12",
"#  c #0D1412",
"$  c #141313",
"%  c #1B1413",
"&  c #1C1B1B",
"*  c #1A1916",
"=  c #0C120F",
"-  c #270C03",
";  c #291509",
":  c #371707",
">  c #231A15",
",  c #281A16",
"<  c #361B14",
"1  c #340701",
"2  c #1E211D",
"3  c #23221E",
"4  c #2B221B",
"5  c #292316",
"6  c #33231C",
"7  c #3A2419",
"8  c #3E250D",
"9  c #271E22",
"0  c #1E2327",
"q  c #242423",
"w  c #2B2423",
"e  c #2B2925",
"r  c #2C2C2A",
"t  c #262827",
"y  c #332622",
"u  c #332B24",
"i  c #3B2C24",
"p  c #332E2B",
"a  c #3B2B28",
"s  c #2D302C",
"d  c #34322D",
"f  c #3B322D",
"g  c #383327",
"h  c #2E3332",
"j  c #333432",
"k  c #3B3431",
"l  c #3D3B35",
"z  c #3C3D3A",
"x  c #373838",
"c  c #352F31",
"v  c #461808",
"b  c #461B14",
"n  c #51170C",
"m  c #482619",
"M  c #562919",
"N  c #4E2C15",
"B  c #642D1A",
"V  c #482B25",
"C  c #552B25",
"Z  c #4B352C",
"A  c #45352A",
"S  c #57372A",
"D  c #443B34",
"F  c #433D3B",
"G  c #483934",
"H  c #553A34",
"J  c #663628",
"K  c #753B2B",
"L  c #683C35",
"P  c #6F382E",
"I  c #3C413C",
"U  c #43423C",
"Y  c #4B433B",
"T  c #4A4338",
"R  c #52443C",
"E  c #57453B",
"W  c #684539",
"Q  c #774639",
"!  c #72482F",
"~  c #7B613E",
"^  c #3E4342",
"/  c #444542",
"(  c #4A4642",
")  c #4C4A44",
"_  c #444C4B",
"`  c #4C4C4B",
"'  c #434946",
"]  c #544C44",
"[  c #534E4A",
"{  c #574A45",
"}  c #4C514B",
"|  c #54524D",
" . c #5B534C",
".. c #5C5446",
"X. c #564F50",
"o. c #4C5453",
"O. c #4B5859",
"+. c #555453",
"@. c #5A5553",
"#. c #5B5955",
"$. c #5C5C5B",
"%. c #555958",
"&. c #4B4D50",
"*. c #694C44",
"=. c #774C44",
"-. c #67564A",
";. c #78564A",
":. c #635B56",
">. c #775B53",
",. c #56625D",
"<. c #69635B",
"1. c #75675B",
"2. c #7C654B",
"3. c #555F61",
"4. c #4F5E61",
"5. c #586364",
"6. c #54706F",
"7. c #676663",
"8. c #776C65",
"9. c #7C7469",
"0. c #6A756E",
"q. c #675C60",
"w. c #443E40",
"e. c #83382E",
"r. c #86493A",
"t. c #89553E",
"y. c #884D43",
"u. c #8C5B4B",
"i. c #875648",
"p. c #945A4C",
"a. c #865C53",
"s. c #965B52",
"d. c #934D46",
"f. c #A45850",
"g. c #8B614A",
"h. c #8A6558",
"j. c #986859",
"k. c #986B53",
"l. c #A56A5C",
"z. c #A96E56",
"x. c #8C6C64",
"c. c #986C63",
"v. c #85776B",
"b. c #9A7569",
"n. c #887C72",
"m. c #977A72",
"M. c #A86D63",
"N. c #AB7B6B",
"B. c #A77667",
"V. c #B47C6C",
"C. c #B47668",
"Z. c #B97C73",
"A. c #A97870",
"S. c #C5796B",
"D. c #C67C75",
"F. c #59807D",
"G. c #8B8278",
"H. c #97877A",
"J. c #9A836A",
"K. c #AC846D",
"L. c #B6836D",
"P. c #A98677",
"I. c #B48473",
"U. c #BC8474",
"Y. c #BB8A75",
"T. c #BB8C7B",
"R. c #B5897A",
"E. c #BA927C",
"W. c #AF9175",
"Q. c #BEA27B",
"!. c #C38C7C",
"~. c #C68677",
"^. c #C4917C",
"/. c #CA977C",
"(. c #D4907C",
"). c #6A8D8F",
"_. c #71A09F",
"`. c #958B86",
"'. c #97928B",
"]. c #A8968A",
"[. c #B99686",
"{. c #A79B94",
"}. c #AE8A81",
"|. c #ABA396",
" X c #B6A599",
".X c #B9B19E",
"XX c #B4ACA4",
"oX c #BCB4A9",
"OX c #B3ADAB",
"+X c #8AAAAE",
"@X c #C78D83",
"#X c #C49483",
"$X c #CB9583",
"%X c #CB9B85",
"&X c #CD9C8B",
"*X c #C49989",
"=X c #D49C8B",
"-X c #D69B86",
";X c #D69E94",
":X c #C89B91",
">X c #E4978D",
",X c #CCA38C",
"<X c #D4A38C",
"1X c #DBA28C",
"2X c #D8A78A",
"3X c #CAA797",
"4X c #D4A392",
"5X c #DCA593",
"6X c #DBAB94",
"7X c #DCAC9B",
"8X c #D5A897",
"9X c #DAB19A",
"0X c #C8B18F",
"qX c #E1A58D",
"wX c #E3AD9B",
"eX c #E5A997",
"rX c #E3B39B",
"tX c #E9B59B",
"yX c #CBAEA2",
"uX c #C4B7AB",
"iX c #D9B6A6",
"pX c #C6BCB4",
"aX c #D6B6AC",
"sX c #E8B8A5",
"dX c #EFB5AA",
"fX c #CCC4B9",
"gX c #D4C7BC",
"hX c #DCC4A8",
"jX c #ECC7B5",
"kX c #DEC49F",
"lX c #A4C9CA",
"zX c #C9CBC3",
"xX c #D5CDC4",
"cX c #D8CEC7",
"vX c #DAD2C6",
"bX c #DAD6CB",
"nX c #DADBD2",
"mX c #E4D8CC",
"MX c #E7DCD5",
"NX c #F3DBD6",
"BX c #FAD7C3",
"VX c #CFE3DC",
"CX c #EBE4DB",
"ZX c #E8E4D9",
"AX c #F7E6DA",
"SX c #FFEBCF",
"DX c #D6EDEC",
"FX c #EBE9E3",
"GX c #F4ECE4",
"HX c #F8ECE7",
"JX c #F5F2EB",
"KX c #FDF3EB",
"LX c #FAF4E7",
"PX c #F9F7F5",
"IX c #EBF1EF",
"UX c #EADEE0",
/* pixels */
"j j d d p r p k F F F z I I / / ( ) ) | #.%.| } |  .| Y ] ` ` o.) ( / U z x h t r 9 w 9 9 9 q 0 0 0 r 0 p k l T T U [ | +.+.+.#.",
"j j j r d p p k l F F F F U / ) ` ( +.| ` #.@.@.@.U | | ) } ' ) ) ( ( U z j s t q w w 9 9 9 & 0 0 q 0 r j p f U ) ) ` | +.@.#.#.",
"x d p p d p g j l F F F U U ) ) ` ` ` %.$.#.%.%.@.@.] [ Y @.] ) { ( Y U l x s t q e q 2 9 2 0 q 9 q r 9 e d z I / _ o.o.%.$.$.<.",
"x d r p d d f j l F F F U ) ) } [ +.| +.#.$.<.%.+.[ @.[ | ..] ..R ( Y F l d s e q t q 2 0 & 2 & q > e p g s l z ^ _ o.+.%.$.7.<.",
"f a p u p d d l I I U U / ) } | @. . .@.<.<...#.@.:.X.$.@.X.] ] ] ( R F D f e t e 2 2 q 2 & q q 5 u 4 u u f d I ' ` o.%.%.$.<.<.",
"f g u u e p g l l U U U / ) [  .{  .*. .....:.-.:.X.X.$.%.:.@.| ] R Y F l g u e e 3 e 2 2 q 9 > 5 :.G { u g g l / _ o.%.$.$.$.5.",
"d a p e e u d d l I U U ) ) ] [ ....E fXmXZXLXT -.:.:.:.:.@.| ` ) R Y G G a p e q e r 3 3 4 > y f y n.-.9.T  .<.( ) | %.$.$.7.5.",
"d p e e e e s d g U U Y ) ) ] ] 9.1.u + 5 ; ; g -.KX-.-.@.@.#.[ ) ) w.w.G k p u t t e q w 3 p 8.d y G 8.E V E 6 :. .| #.$.$.5.7.",
"p p e 3 e e s s U I F Y T ] Y G.> o O . + ; ; : 8 A J.Q.-.-. . .} } / F F k c c r h t t e 4 l {., y y G -.E 6 E A 9.T #.#.:.$.7.",
"p t p t 3 3 e l g l T T ] R G.] o % * ; , , V 2.N N ~ 0X].-.-.{ ) ) ) / w.c x x c h t p s 6 a D i < ; 7 m ; 7 R i <., 7.Y #.<.:.",
"j r t q 2 e w u T f D E R mX; ; A u > < pXmXZ W ~ Q.SXjXSXE ..:.+.[ ` F ( w.x j j j j t 3 g u i m W : : ; E ; ; 6 l -.g <.T -.<.",
"r t r 3 e 3 w f g G T E HXv.7 H AXjXgX7 8 jXP.SXSXkXJ.hX~ AXa  .[ ` ` ( / U l l f d f g f 6 aXyX3X:X[.B.b.V < + X O :.e f 7 7 -.",
"h h q 2 * 4 y 7 i Z G m b.jXm S k.SX,XSXP.LX~ h.jXN 2.J.LXH 6 ..+.^ _ } I I U l A G jX X:X8XeX=X;X=X&X*X[.c.Z < X > ; % R 8.8.-.",
"h q t q & y 6 X {.SXaXaXSXv C BX/.L.K.b.LXm 8 ; g ; 8 g A 6 A i ] } } ^ Y I U Z >.aX}.M.;X;XeXeX$XqX5XwX7XR.A.H E A , , Y l D 6 ",
"s s q > 6 > KXAX3X3XiXsX1 N M SXC.qX^.[.m AX; g ; ; ; ; ].: h.N -.] { { R R H H aX:X@Xi.p.~.qXqXqXeX-XqXtX&XA.c.Z ; , , . * * 3 ",
"s t w 4 5 6 3XV yXjXsX: ! k.B L.t.1XY.R.m 8 ; 5 u fX; ; ; : N k.P.W =.3X.XhXjXaX[.T.M.s.p.r.qXeXeX;XeXwXwXwXiX*Xx.*., O * > o * ",
"s e y aXyXmXg.*XsXhXdXsXt.K B tX2X/.V.B h.S ; 6 , > H.< jXjXN g.A.@XdXdXsXB.$X(.B.E.! K U.l.eXtX=X~.$X4X7X8X:XiXP.*.< @ % * # & ",
"s e i yXsXsXg.LX5X6XsXeXe.K r.K 6X^.k.S : N < 4 g 3 < 1 v m n f.f.A.sX$XM.=X5XqXK.i.Q N.M.~.M.5X!.-X$XI.N.R.iX3X[.m.a @ . & # # ",
"e u 7 yXE.4XN.t.%XE.Q B.B S.jXz.tXE.B.- S v N mX~ ; 5 A C n r.f.P v B &X;X(.>X>XU.B.J s./.Z.Y.N.Z.U.!.,XE.3X[.L *.H V @ $   $ 0 ",
"f i 7 }.W.E.B.v ^.!.Y.U.jXjXB qX6XW.B.m M N : ; 8 W 7 N m n S.(.n Q n v >XD.(.D.~.~.*X5XU.=X#XY.@X;X4X8XP.h.a.;.W , , > $ $   $ ",
"7 V m H.3X3XN.v *XT.T.T.n K B =Xu.V.P v v N g.J 8 X S 9Xr.e.f.f.M.=.K y.e.D.>X>X>XeXwXdX7X7X$X!.Z.V.I.*Xu.h.*.b.W { , O @ $ $   ",
"yX- - BX[.7XT.v &X#XI.N.B M ~.$Xu.h.n sXv W.*XK.! N L.t.r.d.f.e.n C L @XD.(.S.>XqX=XdXdXwXdXT.!.!.C.[.A.,Xm.m.-.*.H 6 , $ $ $ $ ",
":X[.BXjX3X;XT.P *X*X*X#XBXv %XU.j.i.! ~ M hX: N v 2Xk.k.e.d.y.n Z.n !.@XS.S.S.S.(.-XwXwX5XwXwX-X!.!.#XI.;.b.J.m.{ `.f w o . % * ",
"=XiXE.9X&X7X&X&X5X&X4X6X0X2X-XC.u.M v v v z.- : k.tX/.z.e.B v : a.J P C.S.S.D.S.M.Z.!.;X-X$X;X;XZ.C.A.I.x.b.;.2.m.1.f 4 4 $ > o ",
"$X5X9X,X5X7X;X7X5X5X<X*XhX5X$XU.! i.M v k.tXv jXz.t.v g.n b < 1 M C y.Z.C.Z.C.C.C.C.C.Z.~.Z.~.@X~.C.=.K.j.P.c.b.;.>.{ a % r c @ ",
"-X1XsX7X&XtX=X!.=X%X!.Y.,XjX1Xp.t.v B N.! g.k.Q.v g.i.W < X - h.=.s.s.M.@XV.$X~.C.Z.l.M.M.j.l.Z.Z.Z.B.M.b.P.h.x.[.>.>.G , > e % ",
"V.qXK.^./.V.C.U.Y.z.k.M.I.8X*XM.N W N W N t.J g.: V E - . O ; E L L L r.p.! M.L.C.s.f.y.y.j.y.j.p.i.B.j.A.h.c.a.*.=.R a d >   @ ",
"L.C.K.Y.B.B.N./.N.k.J Q T.j.h.i.: K.m 8 E.: ~ J.Z , O . $ o T 7 V C =.L u.B u.f.~.M.y.P Q P u.Q p.s.u.j.K.b.dXL L S Z { > r / . ",
"L.L.V.V.I.N.}.T.^.B.g.l.K.B.W b ! < J.- ! W Z 8 A @ o $   & > V < b =.c.Q ! J l.r.l.K M.=.=.L y.s.j.T.$X@X&X&XwX;XL V H y @ % . ",
"E.Y.I.l.T.T.I.N.l.k.u.j.*Xb C : m J - < ~ 9.8.| G %   o % % 9 6 , Z a.u.y.Q j.l.s.p.=.i.a.y.L y.s.!.M.u.$Xz.v B C L C H > @ # & ",
"E.R.I.B.#X#XA.I.K.i.B.[.W *.H ; : W : Z > } | } q = $ o w @ % @ 6 V L J i.Q Q u.Q ! P C C C Q s.@X@XdXL f.eXM.>Xf.s.m.< @ & $   ",
"W.[.T.#XR.R.I.A.Y.g.K.j.=.L a.; - *.v.< ) } } o.0 * o . @ % @ % % , H b C b S Q L L C b M C P C.dXB v i.n n dX;Xf.[.h.V % $ # $ ",
"[.Y./.,X*X*XR.U.L.L.I.Q =.;.=.*.- % @ 9 [ } _ O.h & # @ % . @ $ G 6 G , < < V V C L =.b C L s.d.D.~.dXs.D.M.>Xf.d.:XH 9 9 9 @ @ ",
"V.T.K.L.I.Y.R./.C.L.u.i.W W W H 6 , 9 9 o.} _ O.O.h t $ $ % . % @ @ % X 9 ; , V b V < < C c.c.>XD.;Xf.eXdX@Xf.y.@XL b 9 @ @ & @ ",
"I.R./.Y.l.E.V.L.C.~.k.i.J *.=.x., 9 p r ` _ O.^ ^ O.O._ x   $   @ . . > @ @ 6 , V 6 - < =.A.s.P s.M.;X;XP b 7XM.H < < V 9 @ @   ",
"W.K./.Y.B.V.%XB.L.t.l.i.;.L *.>.G X.+.o._ &.^ ^ ^ ^ ^ ^ ^ $ * $ @ X % o X % - O , - 7 L M.a.y.P M b b C C C b b 9 9 a y % & $ # ",
"E.%X,X2XL.B.^.%Xz./.~.B.}.>.>.f &.o.&.&.^ o._ o.^ ^ ^ ^ ^ x #   $ * % % a > - , , 1 a.a.c.s.y.Q C C < C C C C 9 , ; 9 9 9 @   # ",
"W.0XqX2X1X-X%X^.2X2XL.c.x.{ a | %.O.O.o.O._ _ ^ ^ ^ ^ ^ h x & # $ , 9 y H V H V L x.>.A.}.C.i.s.J C b < b a C 9 < < 6 V 9 @ # = ",
"W.,XtXkX2X%XN.%X!.l.N.m V { %.O.o.O.4.O.%.o.O.^ ^ ^ x h z x x 3 % 5 H V E *.=.a.a.A.Z.D.D.Z.j.y.Q L V < C C G C 6 , G 9 y $ # # ",
"K.sXwXtXdXeXrX<X-X,XE.*.:.#.O.O.O.4.O.O.O.O.o.&.^ ^ I x h h x x { E >.x.*.*.[.A.Z.M.Z.D.M.M.M.s.=.L C C w.C C G G ; , F @ $ ` _ ",
"S ,X8XtXtX6XsXwX1X,X,X*.%.O.O.O.4.4.3.3.%.%.%.X.( w.x c c h j p m.x.m.a.S P.P.b.A.M.D.l.C.D.s.s.=.=.H H G *.-.>.G a @ @ @ :.X.{ ",
"S W.,X9XsXsXwXwXeXrXyX .| O.4.6.4.4.3.3.3.$.@.[ ( w.D c j s c p x.c.=.b.T.P.P.j.c.M.C.D.Z.M.M.x.c.NX].X MXNXZ H E 5 8.q.:.X.@.[ ",
"v b.E.,XsXsX7XwXdX7X3X{ %.O.4.^ 5.5.5.5.$.$.@.+.( Y D f p p p p m.c.a.A.m.;.;.h.A.M.Z.A.s.A.c.< :.pXHXUXMXFXCXpXxXoX$.$.3.:.X.{ ",
"m P.R.,X7XsXwX5XtX9XyX].| O.^ 6.4.3.3.q.$.:.@. .{ F D k d p p a x.j.a.x.g.A.a.i.c.A.M.c.c.< HXNXNXHXUXmXFXbXnXFXCXJXPX3.%.[ X.{ ",
"m [.W.,X6XrXsX6XtXtXiXuX` o.O.O.3.$.5.:.:.:. ...R Y G f f d p p -.;.h.h.b.c.c.c.N.c.b.HX7 < FXGXFXIXCXGXFXJXJXnXDXIXIX_.IXO.&.X.",
"E ].,X[.6X5XeX6XeXtXkXhX{ ` +.o.%.$.$.#.#.@...{ R R D D k f p a *.x.h.x.h.A.s.c.B.m.LXGX> g UXFXFXFXJXJXFXFXJXJXPXIXIX_._.4.$.@.",
"Z J.,X/.6X6XrXtXtX2XsXaX{.( o.&.+.%.+.@. . ...{ R R T G G k g a =.a.x.c.M.Z.A.A.m.< bXe JXIXJXPXHXHXJXPXPXHXHXJXJXPX).lX_.IX5.:.",
"D J.[.E./.2X6X6XqXsXwXaX[.R ' &.+.X.@.| |  .] R R R T D D k f a >.b.b.s.j.c.m.x.}.u FXFXZXzXoXUXHXPXHXHXJXPXJXJXJXPXDX_._._.3.7.",
"G Z [.E./.2X2X9XtXtX6X,X].E ) ' } %.+.[ | [ { ) R Y T Y f 9.pXuX>.h.L x.a.h.m.XXZXgXLXJXPXFXUXcXHXMXUXJXGXGXJXJXHXFXIXDX).).4.q.",
"k A [.#X/./.2X9X9X6X4X2X0XZ / ' } _ X.+.[ [ { R ( H A G.O 5 <.G.;.;.=.=.a.;.NXmXZXLXGXHXHXJXUXFXHXcXKXnXCXGXJXJXAXHXPXDXF.F.5.7.",
"f A ].E.^./.<X5X2X9XrX2X,XyXD F } } |  .[ { w.pXw.> O O X X 1.-.*.*.=.>.-.NXNXGXAXLXGXHXHXGXFXJXGXJXFXMXMXcXCXZXMXGXHXIXVX6.6.3.",
"k A P.E.E./.%X,X6X2X2XtXsXaXZ F U U Y #.D % > @ [ 9.8.:.] '.1.1.x.*.W *.AXNXmXxXfXoXuXgXCXHXPXFXFXGXCXCXMXGXZXgXpXgXUXVXVX+X0.5.",
"p A H.I.^./.%X&X2X/.2XtX9X9X XZ l T T '.OXXX'.}   $ . o > <.1.E > V mXNXNXKXHXKXGXGXGXGXCXMXfX{.mXHXMXKXCXCXxXGXpXoXfXzXVXVX).4.",
"p A b.K.^./.%X%X2X2XQ.tX9X9XiXiXaXZ fX+ * o # + $ . $ % | fXLXZXGXGXHXHXUXGXGXxXgXvXGXLXAXCXCXmXcXgXzXMXZXCXZXfXpXXXxXfXzXVXlX+X",
"A G ;.K.T.T.^.#X,X,X/./.6XeX8X9X7XiXJ.+ ..n.8.0.0.| ..:.u 4 3 ZXGXGXMXcXxXnXJXGXLXGXZXgXgXfXvXgXxXgXxXxXoX0.XXpXNXgX X.XxXVX)._.",
"A A Z c.T.U.!.#X/.,X/././.-X6XeXwX5X0XkX2.G.+ + - 7 - ; 6 D U u XXGXGXFXZXzXXX|.uXLXmXmXgXxXuXuXXXpXMXCX|.9.1.mXuX|.XXxXuXVXVX_.",
"A Z S c.R.Y.T././.*X/././.(.qX/.qXeX&X8X,XN B.W.dX5X8X:Xn.; 5 g d oXFXJXFXIXGXvX.X9.9.G.bXKXLXLXAXmXfXbXoXoXn.n.{.uX|..X0XzXDX).",
"T T V x.B.I.Y.T.Y.^././.(./.qXtX=XwX=X1X<X%XqX(.eXdX5X5X9XW.; 6 6 f KXCXJXnXpXJXAXfX{.1.E 1.<.8.G.].`.fXJXpXH.1.uX'.].H. XzXDX).",
"A A H u.A.I.N.Y.Y.^.^././.(.qXqXqX-X1X1X(.qX(.eX>XeXwXdX,XiX:XH 7 <.CXLXJXCXCXOXXXZXvX{.n.9.] T T 9.v.:.9.bXZXn.7.v.gXH..XOXVX).",
"V A Z H h.B.E.Y.E.^.^././.(.qXqXqX$XtXeXqX2X(.qX-XqXtXwXwX5X7X3XW .XAXCXZXnXnXnX|.|.gXvXoXH.G.|.H.G.fXR T oX|.vXuX8.G.G.{.pXVX6.",
"A A Z S h.c.K.Y.!.!.!././.2X1X2X<X^.<X1X6X1X1X-X1X6X6XeXrXwXwX7XyXN jXmXGXnXvXbXCX X].bX|..X].'.G.oX9.v.R Y 8.{.XX|.9.zX'.XXzX4.",
"7 Z Z Z S x.b.L.!././.$X/././././.L.<X<XeXeX1X5XwX%X6X6XrXrXwX5X7XW.|.NXbXmXmXoXfXLX|.H.ZX|.|.fX|.H.fX'.1.Y -.E G.{.`.`.'.OXbXfX",
"Z A S S P.2.k.B.^.^.!./.$X^.!.U./.V.Y.C.!.1XtXwX7XrXrX6X6X2X%X<X;XK.-.mXmXbXgXoXH.].FXoXXXvXfX{.|.gX].oXmXH.1.<...<.H.oX'.|.bXgX",
"Z E W.H.-.N k.B.L.~.!.!.!.^.#X/.(.L.B.V.@X5X7X5X;X<X%X$XE.Y.Y.I.A.I.h.hXgXvXfXpXH.<.H.CXfXfXbXfX.X|.H.9.].{.{.G.1..X).'.'.'.pXfX"
};
