/* XPM */
static char *_2fbd9c0384f4eb3cce7607da1028ce2r963NbxWTEmDEe3z[] = {
/* columns rows colors chars-per-pixel */
"64 64 255 2 ",
"   c #050504",
".  c #0B0503",
"X  c #0C0906",
"o  c #0D0B0A",
"O  c #090708",
"+  c #120601",
"@  c #130A04",
"#  c #1B0B03",
"$  c #130D0B",
"%  c #1A0E0A",
"&  c #170702",
"*  c #15110C",
"=  c #1B110C",
"-  c #191104",
";  c #1C1412",
":  c #171415",
">  c #110F10",
",  c #250D03",
"<  c #241104",
"1  c #24140C",
"2  c #2A160B",
"3  c #2D1A0D",
"4  c #291609",
"5  c #321B0D",
"6  c #391A0A",
"7  c #221611",
"8  c #241914",
"9  c #2B1C13",
"0  c #2C1D19",
"q  c #271916",
"w  c #321E13",
"e  c #341F17",
"r  c #38220F",
"t  c #2D211C",
"y  c #2A2218",
"u  c #352215",
"i  c #3B2315",
"p  c #35231B",
"a  c #3B261C",
"s  c #3C291D",
"d  c #372A1A",
"f  c #271E26",
"g  c #2D2223",
"h  c #2D262D",
"j  c #2D292E",
"k  c #27262A",
"l  c #332624",
"z  c #3A2721",
"x  c #352924",
"c  c #3C2B23",
"v  c #32262B",
"b  c #342A2B",
"n  c #3B2D2C",
"m  c #3C312A",
"M  c #2B2633",
"N  c #2C2A35",
"B  c #2D2C39",
"V  c #262633",
"C  c #332B34",
"Z  c #392E34",
"A  c #332D3A",
"S  c #3A2E3A",
"D  c #322734",
"F  c #3D3233",
"G  c #35313B",
"H  c #3B323C",
"J  c #373238",
"K  c #2E303A",
"L  c #1E1E26",
"P  c #40190C",
"I  c #432B1C",
"U  c #462817",
"Y  c #48321C",
"T  c #522B17",
"R  c #422D23",
"E  c #442E27",
"W  c #443225",
"Q  c #4B3424",
"!  c #44332B",
"~  c #4B362B",
"^  c #4C3A2D",
"/  c #4F3A27",
"(  c #533423",
")  c #533C2C",
"_  c #583928",
"`  c #433532",
"'  c #4C3C33",
"]  c #473A36",
"[  c #523D34",
"{  c #593E34",
"}  c #663C2D",
"|  c #623C30",
" . c #62361D",
".. c #5A422D",
"X. c #554234",
"o. c #5B4434",
"O. c #59463B",
"+. c #4F4337",
"@. c #63432D",
"#. c #6B462E",
"$. c #744428",
"%. c #6C4B34",
"&. c #624B3C",
"*. c #6B4C3A",
"=. c #674535",
"-. c #734D3B",
";. c #734C35",
":. c #6D5239",
">. c #74543B",
",. c #7C553C",
"<. c #79553A",
"1. c #393441",
"2. c #413742",
"3. c #5A4B46",
"4. c #594F4A",
"5. c #6B5544",
"6. c #695847",
"7. c #745C43",
"8. c #7C5C42",
"9. c #725D4A",
"0. c #7A5645",
"q. c #685A54",
"w. c #765E51",
"e. c #684D43",
"r. c #75624C",
"t. c #7C644B",
"y. c #7C6146",
"u. c #7A6755",
"i. c #7F7157",
"p. c #6C786D",
"a. c #7D7B66",
"s. c #747B6D",
"d. c #7C7D6A",
"f. c #7B7667",
"g. c #697A76",
"h. c #737E71",
"j. c #796A62",
"k. c #5D6F71",
"l. c #825B3E",
"z. c #84573A",
"x. c #9C5C3D",
"c. c #835D43",
"v. c #875A45",
"b. c #925E50",
"n. c #846145",
"m. c #82654B",
"M. c #8A654A",
"N. c #84694D",
"B. c #8B664A",
"V. c #946A4C",
"C. c #9A6948",
"Z. c #96734E",
"A. c #846C53",
"S. c #8A6D52",
"D. c #856956",
"F. c #986C55",
"G. c #837256",
"H. c #8C7356",
"J. c #85745B",
"K. c #8B755A",
"L. c #86795E",
"P. c #8B7A5D",
"I. c #897C55",
"U. c #9A7653",
"Y. c #937B5D",
"T. c #977857",
"R. c #8C714F",
"E. c #A47755",
"W. c #AA734E",
"Q. c #847C64",
"!. c #8B7D63",
"~. c #837E6A",
"^. c #8C7D69",
"/. c #897662",
"(. c #937D63",
"). c #977B67",
"_. c #877E73",
"`. c #907065",
"'. c #A47862",
"]. c #7D816D",
"[. c #76806F",
"{. c #7D8473",
"}. c #7B867B",
"|. c #788577",
" X c #9A825D",
".X c #8E825C",
"XX c #A9855B",
"oX c #B4825D",
"OX c #8D8165",
"+X c #83826C",
"@X c #8C836B",
"#X c #8E896E",
"$X c #878167",
"%X c #938364",
"&X c #92846A",
"*X c #958A6D",
"=X c #9B8C6D",
"-X c #998766",
";X c #838472",
":X c #8B8471",
">X c #8E8A71",
",X c #818A7B",
"<X c #838876",
"1X c #958572",
"2X c #958C72",
"3X c #9A8E72",
"4X c #9A8979",
"5X c #9D9274",
"6X c #9D9579",
"7X c #9C906A",
"8X c #A68969",
"9X c #B68765",
"0X c #A9936B",
"qX c #B4946B",
"wX c #A29474",
"eX c #A2967A",
"rX c #A49A7C",
"tX c #A99C7E",
"yX c #A99874",
"uX c #B69A77",
"iX c #A98C7B",
"pX c #AEA17D",
"aX c #BAA378",
"sX c #C49B79",
"dX c #C2A67D",
"fX c #6F8181",
"gX c #788785",
"hX c #838E83",
"jX c #8B958B",
"kX c #899488",
"lX c #8F9A93",
"zX c #899691",
"xX c #919C94",
"cX c #919C98",
"vX c #958C87",
"bX c #AA9D82",
"nX c #B89C8B",
"mX c #96A198",
"MX c #ADA182",
"NX c #B5A688",
"BX c #BEB196",
"VX c #B9AC94",
"CX c #BFB4A0",
"ZX c #C6AB84",
"AX c #CAB697",
"SX c #D1B28F",
"DX c #CABCA6",
"FX c #C19F84",
"GX c #D8C7A8",
"HX c #D3C8B1",
"JX c #E3CBA8",
"KX c #E8D4B5",
"LX c #E2C29B",
"PX c #FBE8C5",
"IX c #F0DCC1",
/* pixels */
"k.fXgXgXcXxXcXxXxXxXxXxXxXxXvX<X}.;X{.{.d.f.f.Q.~.@X2X2X=X*X#X*XOX@XOX.X$XOXOXOX!.!.OXOX!.(.(.!.J.9.7.:.r.A.8XwXY.K.N.t.N.m.<.:.",
"k.fXgXgXzXzXlXxXxXxXlXjXjXjXkX,X;X}.{.d.d.a.d.~.@X#X2X2X=X#XOX&XOXOXOXOXOX$X$X.X!.!.P.!.!.L.P.J.G.t.9.7.:.>.A.A.K.P.K.G.N.t.8.<.",
"g.fXgXhXcXcXxXxXxXxXxXlXjXkX,X,X{.;X;X{.].~.~.+X:X>X2X2X3X*X*X%X&X#X%XOXOXOXOXL.OXOXP.OXOX!.P.L.L.A.A.8.>.:.<.m.Y.A.A.K.N.N.<.y.",
"g.fXgXgXxXxXxXlXxXxXxXlXjXkX,X<X{.;X;X;X;X+X+X@X#X*X2X3X=X*XOX*XOX@XOXOXOXOXOX$XOXL.!.OX!.!.!.L.G.D.D.N.7.>.<.y.H.=XY.P.G.N.G.t.",
"g.fXgXgXcXcXmXxXxXxXxXxXjX,X,X<X{.{.d.].;X+X+X#X4X6X6X6X5X2X*X*X*XOXOXOXOXOXOX$XOXOXOXOXOXOXOX!.K.D.A.A.8.>.:.:.8.H.=X%X8X=XA.S.",
"fXfXgXzXcXcXcXcXmXxXxXjXkX,X<X<X].{.d.d.].+X+X>X6XrXMX6X6X5X*X*X3X*X*XOXOX&XOXOXOXOXOXOX#XOXOXOX&X).`.S.8.7.:.>.y.y.m.(.tX=XY.K.",
"k.fXgXzXgXzXjXjXxXjXjXhX,X,X<X}.].d.a.s.a.$X@X>X2X6XbX6X5X3X*X*X*X*XOXOXOXOXOX.XL.L.P.$X$X.XOXOX^.).J.D.8.8.>.>.%.>.H.(.8X8XK.t.",
"k.fXgXgXgXhXhXhXxX,X,X}.,X<X{.;X{.d.d.d.].$X+X#X2X6X6X6X5X5X3X#X&X@XOX$XOXOXOX$X$XOXOX!.L.L.L.P.!.(.K.J.D.A.7.>.>.:.>.t.A.Y.P.m.",
"k.g.gXgX}.}.}.,X,X,X,X,X|.<X<X#X].a.+X].].+X#X#X2X2X5X5XeXwX5X*X=X*X@X&X*X@X&X!.OX&XP.Q.L.L.L.i.J.L.L.L.A.A.y.8.>.#.%.<.c.n.y.%.",
"g.|.|.gX}.|.,X,X,X|.|.,X<X<X{.].<X;X<X:X#X2X#X>X*X2X2X5X6XeX5X3X*X@X*XOXOXOXOXP.P.OXP.!.P.J.L.i.J.L.P.G.G.N.N.m.<.:.>.#.>.>.%...",
"|.fX}.}.|.}.}.<X{.{.{.}.{.].].].+X].$X].+X>X#X#X2X2X=X5X5XwXwX=X*X*X*XOX%X%XOXP.P.P.P.P.L.G.G.G.J.P.OXP.K.A.N.m.N.c.c.;.B.l.n.n.",
"g.g.[.[.[.].{.].{.{.{.{.].].#X].[.a.a.].>X>X#X5X5X5X5X5X5X5XwX1X=X7X*X*X&X%XOXP.L.L.L.P.L.L.J.K.G.L.P.P.Y.P.H.R.R.c.,.<.n.,.c.,.",
"[.g.[.[.[.].].].].].].].].].].].].a.a.+X>X>X>X6X6X6X5X6XwXeXwX5X5X5X7X7X=X&X%XOXP.P.P.P.P.P.P.P.P.P.K.K.Y.Y.Y.G.B.B.v.l.,.c.l.#.",
"[.[.[.[.[.].].[.[.[.].[.].].].].a.a.a.$X#X#X2X6XrXrXrXpXtXtXtXtXrXeXwXwX7X*X%X%X%X.X%XY.P. XP.K.%XY.P.K..X XY.R.8.n.B.B.v.M.c.;.",
"p.g.g.[.[.a.[.a.a.s.i.].].].].].a.$X].+X;X#X6X6XpXMXMXMXbXtXtXtXpXpXrXrX5X7X=X*X%X%X(.P.P.%XP.H.K.K.H.H.I.Y.I.N.n.,.n.V.V.n.l.<.",
"[.[.[.[.[.].].].].a.].].].$X]..X].].$X+X$X#X6X5X6XrXMXpXbXtXtXtXeXwXeX5X5X5X7X=X*X%X%XH.K.Y.Y.T.H.T.H.R.N.N.y.<.8.8.,.,.B.M.n.<.",
"k.k.s.[.[.[.].].{.+X;X~.+X+X].a.Q.a.Q.$XQ.$X2X6X5XtXMXbXtXwXwX=X*X=XwXwXwX7X=X0X-X-X-XH.Y.T.Y.Y.).S.H.S.N.8.,.<.n.,.;.B.R.M.8.<.",
"p.p.s.[.{.].].].+X+X;X;X+X~.$XQ.$XQ.~.@X$X@X&X#X3X5XeXeXwXyX=X-X-X%X8X-X%X%X%X-X%X%XY.Y.-XY.Y.H.T.H.M.S.m.c.y.8.M.B.n.n.B.l.8.8.",
"p.p.p.[.].].].].+X;X:X+X~.~.$X$XQ.+X@XQ.L.L.!.OX&X*X=X5X-X5X&X%XP.%X%XP.G.%XJ.J.H.N.G.N.N.S.H.H.S.R.N.n.n.B.n.c.M.;.l.n.l.l.z.;.",
"[.p.a.[.].].$X@X:X:X@X@X!.^.OXOXOX$XQ.L.L.$X$XOXP.OX&X!.L.(.%X!.P.L.!.(.&XG.J.L.t.i.t.t.m.N.H.m.S.N.m.M.m.,.,.8.<.M.l.l.l.z.C.z.",
"s.s.d.d.].$X$X>X@X@X^.!.^.!.&X!.Q.OXOXQ.OXOXOXOX&X-X&X&X&X/.!.G.G.J.i././.G./.9.i.r.t.7.7.A.8.m.m.m.R.H.m.@.7.>.'.Y.Y.E.U.E.U.v.",
"f.s.d.d.$X$X@X@X@X@X@X^.&X&X!.!.L.L.L..XL.!.!.&XL.&X!./././.!.!.L.G./.D.u.i.u., u.9.t.9.t.t.u.K.A.A.d o.t.U _ 7.*.=.*.%.B.c.l.<.",
"d._.d.Q.a.$X$X$X^.&X&X^.&X).^.(.&XG.r.r.i.G.L.J./.^.!.!.!.1XG.^.O.r.u.p ^ w ! X.s u.r.O.u.u././ &.X.3.~ 4 4 @ # p i.r / _ @.#.<.",
"d.d.~.a.a.a.$X@X^.&X&X&X&X1X1X1X/.G.G.t.6.6.A.L.!.!./.&X^.1XW i # # & # @ u s ^ X.u X.O.1Xe.Q Q y 9 1 x * @ - . 0 e u / Q / :.=.",
"_.d._.d.f./.Q.!.!.^.L.&X@X^.1X^.i.u.9.9.6.7.6.^.!.^.1X4Xu I d # < 9 z + @ ' ' # p ' ! c W ' a & . = ; % : * $ % b c m w W Q Q ) ",
"_.d._._.~.~.~.^.~./.@Xu d 6.i u.u.w.6.5.o.6.L.i.6.< 3 , # + 3 ' 9 @ l ] 9 @ @ p 7 O.x 1 c 9 p :XvX* * % . ; $ ; b n ' p s I I Q ",
":X:X_.+X^.~.~.^.@XJ./.d + 3 q.& # 3 u 9 W < y 1 # - # < ' p 7 +.] 3.q.x . = ` q.g @ % 0 y 7 @ = % @ % . % 7 % c m t W R u I i I ",
">X:X_.:X~.~./.Q./.@XQ.r.d < # 9 1 ! % ^.+ u - 6.1 4 = ] l # % # @ + * % 8 ; %   $ % $ . % % @ = = ; % 1 % 1 % c ~ ~ ~ s i W 5 r ",
"4X2X:X:X:X^.Q.^.i.Q.J.r.6.+.+ # % . @ = ] @ X . p _.q.* * - . . + . . : $ $ . $ o o . . . + $ @ + q 1 9 q 9 w E p R ~ u u d I 3 ",
"vX4X1X:X:X^.^.!.J.i.J.i.r.q.] + q 7 X * . . o 3.4.$ . * *   * * $ $ @ . . X   X o   . $ $ . : $ % = @ p E 1 e u I Q a w s s u s ",
"MXbX2X1X&X^.!./.OX!.L.r.6.6.+.@ g o   o o o X     > o X o X o o X . X   $ o o o o > O   > o > : % % % 7 z E e 2 s w 9 s u p d m ",
"NXbX3X&X&X!.!.J.P.&X/.u.6.] t $ :   o : *   o O o O O   X X X o o $ X o       o o   > > > > : > 7 ] 1 1 1 E c < R w ~ d d 8 y 9 ",
"BXNXpXwX*X.XI..X/.(./.i.6.< 9 . X . . . X X . o X * $ X * * @ + $ o o X O O o   O > o o > > : 7 z &.) [ < < R w ! s c s p s c s ",
"AXBXNXpXyX7X-X.X%XJ.`.o.R # # & # . . # + @ = 1 = 7 @ % ' 6.5.3.= o > o > o > o . O $ $ $ $ $ ` ^ ~ { o.) i s 2 ~ s z s s c 1 d ",
"HXDXBXNXpXyX7X.X%X-X&X, , , 6.w.X.I & o.# Y D.6.X.5.6.9.t.5.%.&.z : + + . $   O o > $ . 7 = 7 q ~ o.o.O.O.w p 2 c R p d d W z u ",
"KXGXAXBXaXyX0X0XyXwXK.H.t.7.c.u.(.Y.Y.8XT.T.M.B.0.M.0.v.7.-.>.( u 7 7 = $ $ . $ $ $ . % $ % % q 2 ) o.&.&.i 3 Q c W 2 p ! p 9 8 ",
"KXGXGXAXdXsXqXqXqX-X XH.U.T.S.T.8X9XqX9XsXW.C.F.B.c.n.S.m.0.;.( w 9 0 & + + $ . . X * - = 8 x 2 w 3 X.o.) i I 4XW w p ~ z d 0 7 ",
"KXKXJXAXSXdXqXqXqXT. XT.U.8XE.E.W.E.'.9XW.sXW.C.B.l.c.;.0.m._ U 6 i w 9 & = % : * : * @ - @ X.' u i X.) d ~ a 5.I E w R 8 9 % # ",
"PXPXJXLXSXdXuXqXXX XT.XXU.8XE.C.E.W.W.'.'.oXW.W.V.z.<.*.e.| P U U P 6 Q e 7 * f : k ; 8 < o._ o.4 W o.o.u i I u.s i 2 z 9 % q q ",
"PXKXLXLXSXdXsX9XT.R.R.K.N.F.U.b.v.v.C.W.C.C.B.E.n.;.%.=.( P 6 U nX<.( *.w.5 q q 9 0 x s ~ .._ %.s ' 3.4 5 i s &.5 e z 4 e 9 1 7 ",
"IXGXAXnXqXuX'.H.A.r.r.I :.Y 0.( 0.;.<.B.l.$.$.,.,.#.| ( 6 , e.iX;.e._ ;.;.T z. .z.'.} } _ { o.w e O.4.w.w e 6 4 w I 2 e R z e % ",
"VXpXiX(.D.M.D.D.O.~ +.c 3.c 3.[ R Q =._ S.@.%.0.-.v.T 6 , F.'.'.).0.| ( F.T sX} SXSX9XT I Q W 9 p j.O.[ e.O.~ [ 2 i R a z e z z ",
"[.f.u.q.3.{ { 2.` b 1.M F b b n b ` ! W ~ ~ ~ | { Q z e E e z z e e e z e R i Q R R E ` m m t n l z z z s p e q z z R z E ] E p ",
"` J J F ` Z Z Z D B A V N K N N C v b Z z ` ` n b F b b l n z D v n v D b v ` Z g ` v ` b J b g l b ! f z b 0 t 0 z z n E z E c ",
"1.G G A D h M A M 1.V V B K K G B B J M S h M f V N V N G C j N D C H ` C C ` C ` S ` S 1.S C C b D v v h b Z g g g q l ! E E n ",
"B B B G A B B A M 1.V 1.1.B K N B B M N A B M 1.B B N K N N N G S 2.C C S 2.S H S S 1.S S ` S H ` S C H J N C C Z v Z b n ` ! [ ",
"1.G B B B G A A M 1.D B B B J V B N K N B N B B B B B B G G S Z C A H H H H A G S H H H 1.C J A A A 1.C B 1.A G A C ` Z n ` n ' ",
"A A G N N N B N A D S D A B N K N N N G N B A A B 1.A A A A D S S A H A A A A J A A G G A H J J H G A A 1.B 1.B A A C Z ` Z ! n ",
"B N M V N C N N A V M M 1.M M B f V B V V B V 1.V K N B B C M A A A C C D D S M C G A S N N J N A h C A B G B B V B J b b b b x ",
"B B G B N N V M M M B B M V M V B L N B V B 1.B B B N N M A A B A S 1.C 1.D S ` Z S C S C G J A J C J C G A B 1.K G C C Z n ` ` ",
"1.B B B M M M B M B B V V V M M M 1.M B V M B L M M N C A A D C M M A C 1.S D S S 1.S S H G C C N C J N C N M C C j b b n m E ] ",
"1.V B B B B B M M B V M V K N N M A D M G V N M C D D h h h M D C C D D S D S S ` Z Z D D C C C b C b b h v v v f 0 g l n c z E ",
"B M A S C C h h C j j N V N k k C f D h k b x x g g D l l l E g t b x x v v v v v Z ` D n b b h b g g h g g g q 0 e e a R R a a ",
"q.4.4.3.] ` ! ` x l n b m x x b g m c R O.Q O...{ ! g e ~ R U E s d p d e R R R z e E z x z p t g x 0 x 0 p g 0 e p p p a R I a ",
"nXvX)./.u.9.9.9.X.Q [ R O.z +.! d / _ _ Y. .l.l.w.{ P 6 | ;.v.F.b. ._ =.| 0.| w.D.=.{ Q I I u w x ] ] ` d e E [ e e e p z s e w ",
"HXDXFXnX0X8X).R.m.7.*.U 5.U :.I ..:.:.<.z.$.$.z.0.( ( P P } '.b.b.T } v.} v.} b.`.} { _ ( I i r d e.3.X.p w ~ /.w e w s c p 2 1 ",
"KXGXGXZXZXdXqXXXU.B.B.:.B.l.M.<.<.B.C.x.x.x.x.z.-.=._ Q 6 6 ;.c.0.| =.0.| U e 6 e e I E ' ' +.w s O.[ 5 e w a { e 5 9 w 0 q % 1 ",
"KXJXLXSXZXdXaXqXT.U.Z.Z.Z.U.U.U.E.C.W.W.W.W.W.C.v.;.=.{ T U U P U E ~ R , , 1 1 1 1 2 y d +.' y s ..Q i 6 i 5.I w 9 w 7 7 7 ; ; ",
"KXGXGXAXZXaXaXqXqXU.XXU. XE.U.Z.Z.W.XXoXoXW.W.l.z.;.*.} | U 6 6 2 9 1 $ & % % % % $ @ = 8 F c 1 I / I 6 U I w.e 2 e p 7 7 ; ; ; ",
"HXHXDXBXaXpXyX0X0X XT.Z.Z.T.Z.U.XXXXXXXXXXW.C.x.v.v.c.v.0.| U w 9 7 & + % . . @ $ + $ % % l 0 8 i _ ( i U p u.p e 9 p 0 t ; ; ; ",
"HXCXBXVXpXwX0X7XyX0XI.N.N.y.y.N.T.T.Z. XU.U.B.c.z.v.z.c.-.%._ 6 1 $ @ o . . . . @ . % @ % 7 1 u i ....) 4 6 ).2 c 9 p p x q ; = ",
"CXCXVXNXpXwX7X7X-XwX>.4 r Y 6.:..._ Y Y ( @.@.=.;.0.-.0.&.:.&.a = $ . $ . o $ o X . $ . # # % c / _ o.o.4 w u.< c 9 p 9 d 0 q 1 ",
"BXNXMX6X7X-X-X.XI.I...w # # - 1 . @ @ . # 4 2 4 3 r w Q ^ O.+.t % . O o         O   . . $ @ - d Q Q ..) 4 5 E 2 c e e 9 9 w w 2 ",
"NX6X7X#X.XI.I.I.J./.u.) 9 < + . o   X   @ . # + @ # @ # - y = @ . o O   O O     O O     $ X X 8 3 Q Q Q , , w , c q 9 w 3 w 9 3 "
};
