/* XPM */
static char *_f0513b3955f4e3ccdc24b55f20e5624fPWSgcUSO1M1bNC8[] = {
/* columns rows colors chars-per-pixel */
"64 64 253 2 ",
"   c #020202",
".  c #0B0301",
"X  c #030509",
"o  c #04090B",
"O  c #0B0B0C",
"+  c #0A0807",
"@  c #130201",
"#  c #150905",
"$  c #18130C",
"%  c #070B14",
"&  c #130D13",
"*  c #0B1318",
"=  c #13151A",
"-  c #171818",
";  c #0A120C",
":  c #271605",
">  c #361703",
",  c #2B1610",
"<  c #1D2115",
"1  c #32271B",
"2  c #071627",
"3  c #161A25",
"4  c #0A1731",
"5  c #2A1934",
"6  c #1B2229",
"7  c #152334",
"8  c #262827",
"9  c #372C28",
"0  c #3B3837",
"q  c #32312F",
"w  c #492806",
"e  c #573506",
"r  c #462618",
"t  c #543513",
"y  c #643B0B",
"u  c #473729",
"i  c #583729",
"p  c #473B37",
"a  c #51332E",
"s  c #673B30",
"d  c #431E07",
"f  c #3F423E",
"g  c #674706",
"h  c #745212",
"j  c #48423C",
"k  c #55453A",
"l  c #57462C",
"z  c #775727",
"x  c #684538",
"c  c #6D4E32",
"v  c #7B683A",
"b  c #715616",
"n  c #143053",
"m  c #293A49",
"M  c #3A3A43",
"N  c #263D58",
"B  c #38274F",
"V  c #15376A",
"C  c #262253",
"Z  c #45305B",
"A  c #334757",
"S  c #1E4165",
"D  c #365269",
"F  c #385A79",
"G  c #2C486E",
"H  c #494847",
"J  c #564B46",
"K  c #5A544B",
"L  c #585756",
"P  c #495355",
"I  c #684A43",
"U  c #784E44",
"Y  c #67554A",
"T  c #775547",
"R  c #695B56",
"E  c #775C54",
"W  c #5D6258",
"Q  c #786748",
"!  c #68635B",
"~  c #77675A",
"^  c #716A4A",
"/  c #475A69",
"(  c #455D75",
")  c #545366",
"_  c #4B6377",
"`  c #576776",
"'  c #686766",
"]  c #766A64",
"[  c #79756B",
"{  c #797975",
"}  c #6A6F72",
"|  c #665867",
" . c #855814",
".. c #87681C",
"X. c #92691D",
"o. c #855930",
"O. c #8A6A28",
"+. c #98752A",
"@. c #977835",
"#. c #8D6D33",
"$. c #A47930",
"%. c #86574A",
"&. c #895B50",
"*. c #866845",
"=. c #897546",
"-. c #997A47",
";. c #8A685B",
":. c #976859",
">. c #86745A",
",. c #977858",
"<. c #956646",
"1. c #A27656",
"2. c #8A6B63",
"3. c #996C63",
"4. c #8A7569",
"5. c #997567",
"6. c #867876",
"7. c #997974",
"8. c #A67869",
"9. c #A77C74",
"0. c #B37D74",
"q. c #AA7667",
"w. c #77827E",
"e. c #A7873A",
"r. c #B18A39",
"t. c #9F8339",
"y. c #998550",
"u. c #A88947",
"i. c #B48C44",
"p. c #B69548",
"a. c #B99B53",
"s. c #AA8F52",
"d. c #BCA255",
"f. c #BCA04D",
"g. c #88847D",
"h. c #988770",
"j. c #A88768",
"k. c #A99768",
"l. c #B79768",
"z. c #A98577",
"x. c #B4867A",
"c. c #BA9A76",
"v. c #B18A70",
"b. c #B8A373",
"n. c #C59D56",
"m. c #C6954C",
"M. c #C7A657",
"N. c #C1947A",
"B. c #C9A965",
"V. c #C6A779",
"C. c #D6B470",
"Z. c #E3B56E",
"A. c #E5C378",
"S. c #DCC278",
"D. c #2F5685",
"F. c #35688E",
"G. c #3F7CA8",
"H. c #485387",
"J. c #705591",
"K. c #496888",
"L. c #556B85",
"P. c #59758A",
"I. c #476B94",
"U. c #497799",
"Y. c #577896",
"T. c #566F98",
"R. c #647889",
"E. c #657B97",
"W. c #7A7284",
"Q. c #477AA5",
"!. c #587CA3",
"~. c #4A68AE",
"^. c #677BA4",
"/. c #887E8D",
"(. c #5A839A",
"). c #778787",
"_. c #688598",
"`. c #728693",
"'. c #5885A8",
"]. c #5587B2",
"[. c #6786A5",
"{. c #738FA7",
"}. c #6B9BC4",
"|. c #888886",
" X c #948986",
".X c #99948C",
"XX c #8B9497",
"oX c #929495",
"OX c #979898",
"+X c #8A8F91",
"@X c #A98985",
"#X c #B78B84",
"$X c #AA9589",
"%X c #B79688",
"&X c #A69B98",
"*X c #B69D92",
"=X c #BBA587",
"-X c #A7A49C",
";X c #B9A397",
":X c #939CA5",
">X c #8A96A3",
",X c #98A6A9",
"<X c #A7A7A7",
"1X c #B8B1AD",
"2X c #ADB5B8",
"3X c #BBBDBC",
"4X c #B5B7B8",
"5X c #AFADAE",
"6X c #A18EAE",
"7X c #C59C94",
"8X c #C49488",
"9X c #C8A687",
"0X c #C7A799",
"qX c #D3A898",
"wX c #D1B78C",
"eX c #C8ABA3",
"rX c #D7ACA4",
"tX c #CAB3AC",
"yX c #D8B4AB",
"uX c #C5BBB8",
"iX c #D6BBB6",
"pX c #E4B5AC",
"aX c #BBC2BC",
"sX c #F2D291",
"dX c #C5C2BD",
"fX c #D4C4B6",
"gX c #E6CDAC",
"hX c #FCE6B5",
"jX c #E1D197",
"kX c #98B0C6",
"lX c #A9BAC7",
"zX c #B8BCC5",
"xX c #A0BCD4",
"cX c #92A5D6",
"vX c #C4BCC5",
"bX c #D0BBE4",
"nX c #BAC3C8",
"mX c #B8C7D5",
"MX c #B1C6D0",
"NX c #AFCDEA",
"BX c #C3C4C4",
"VX c #C6C7C9",
"CX c #D5C8C8",
"ZX c #C8CBD4",
"AX c #CAD2D6",
"SX c #D5D7DA",
"DX c #CED1CD",
"FX c #FCF2CC",
"GX c #D9DBE2",
"HX c #C6CEE4",
"JX c #DDE1E4",
"KX c #EBEBEC",
"LX c #E2DAD1",
/* pixels */
"                          + o + O + + 8 q O - $ +   ;     O . . ; $ +   <   P 8   + . + @ .                                     ",
"                                    . p 9 1 $ & # +   - &   O # + + + ,   $ 8 0     + +   +                                     ",
"                                      p , 9 R , # # . ;   < $ O ; $ # $ : + 8 A +   X           .                               ",
"                                    . p H @X$XY 1 # # . $ $ $ , # $ p u k < < W   O     X   o                                   ",
"                                    . Y ] *X7X;XI , , , $ , 1 p u I ~ 7.h.p 9 q .   X o o     o                                 ",
"                                  . @ ~ 2.@X7X8X%Xr k a k a l ! $X8X/.@Xz.J H J { +     X o             +                       ",
"                                @ *Xa E 9.#X#X%X#X&.I x x ;.z.z.@X*X#Xz.7.;.I ] 6.. ;     o                                     ",
"                                @ /.&.2.9.9.%X0.5.5.&.%.%.5.7.v.#X9.z.z.z.5.~ ] 6.. . o     o                                   ",
"                              . @ 7.7.&.9.0.#X0.0.0.3.:.q.q.0.0.x.z.z.z.9.5.>.Q @ #X# .                                         ",
"                              . . #X9.3.8.0.x.x.0.x.0.8X0.q.0.0.x.x.8.x.h.>.4.~ 3./. X@ .   +   O   X +                         ",
"                              . @ U U /.9.8X8Xx.8X9.0.N.0.N./.8Xx.j.v.z.z.z.2.3.7.9., @   .           +                         ",
"                                @ :.s %X/.q.%.:.5.;.q.q.q.0.q.0.x.z.#Xx.x.x.>.7.x 3.@ @ .     + +                               ",
"                                . @XeX9./.U a r r s %.T &.&.3.3.5.9.2.9.*Xz.7.T a I @ @ #                                       ",
"                          +     @ . $X9.0.s d > @ d > U U &.s s a r x U 3.#X7X@Xs 3.KX.   X X X X                               ",
"                          +       . &.7.0.q.3.s r > # s 3.U r d @ , i I :.@X#X7.#X0., 5 6 6 KX                                  ",
"                                  X O r 9.0.3.:.i r y /.0.&.r r a T ;.3.9.#X7.9./.bXbXLXAXGX` 6 H DXX O                         ",
"        +               X       X O $ @ 8.3.8.:.%.:.q.8X0.0.0.s U :.q.0.8.z.a /.& & ; o 3 3 * % zXKXH X                         ",
"          +                   JX8 + $ k ;.&.:.q.:.:.0.0.0.0.0.q.7.q.q.q.q.8.@ vXVXBXVXBXSXAXAX:X= = m KX% X                   X ",
"                X   o   X KXSXVX*   $ ~ I %.:.q.<.o.q.0.0.q.q.%.3.3.:.q.3.E @ * 3 /.H + O = o nXvXGXGX7 0 X X                   ",
"  +           + +     KXGXSX+X- +   # 9 U s %.o.%.s 8X0.0.0.q.o.:.3.:.:.;.I $ = = = & + +XKX  * = % * vXGXM X X                 ",
"          X o     M JXSXAXO O zX5X  @ @ I I &.&.U %.0.0.0.q.3.%.:.:.:.q.c J O 4XvXZXbXCXaXaXDXSXGX2X= = * GX6 X X               ",
"      o         4XGXSXuXO + VXvX  @ @ # T rXrXpXpXpXpX8X0.s o.:.&.3.:.s ^ $ ; VXzXHXZXnXnXDXZXnXZXnXDXZXZX* 3 X X               ",
"    X   X   X SXGXBX8 & + BXM $ . , 9 iXpX/.8XrX0.8X0.8X/.y x %.:.,.s s u #   nXzXbXHXHXmXMXmXnXAXZXDX3XvXAX+XM X X             ",
"      X X   ZXzX4X% O |.<X. + # dXfXiXrXpXpX8XrXrXpXqX8XqXqXq.c c U c ~ $ dXVXzXZX:X^.^.(._.{.kXMXmXVX3X1XvXZX2 X               ",
"  o     o SXGX2Xo & OXoXO . J CXfXiXtXiX0X0X8X8X0.0.q.q.l.c.-.9Xx i l ] ; BXdXVXVXmX^.F.}.'.[.Y.kXAXVXuX3XdX2Xo   o     X   X   ",
"        GXJX* o o 3X<XO    X-XtXiXtXrX7X#X%.x t > w y gX1.y.b wXFX0Xh.# <XBXVXdXVXmX^.I.Q.}.].Q.E.:XSXBX1XBXzXGXzX          X o ",
"    o JXJX; - AXOX& #   vXeXuXtXeXeX7Xz.T 9XpXqXj.N.V.c w z b l.gXKXl ; 4XDXdXnXnXNX!.].F.G.].D.H.HX<XCX1XdXzXnXKX        o     ",
"o   KXJX* * AX=   6 1XCX. tXtXyXiXpXyXrXqX8X%XqXqX8XqXV.b.b.V.hXjXFXhXOX<XBXdXaXnXzXT.!.Q.F.].G.F xXVXSX4XBXnXAX6     .         ",
"  GXJX- 3 VXo = VXvX. . . iXtXfXrX0X%Xz.7.8.8.j.v.8.j.j.*.FXFXjXjXgXk.fXuX5XDXaXBXmXNX[.'.F.Q.].F.kXnXVX3XVXZXlXX .         #   ",
"  JX= = AX% & nXBX& . uXtXeX*X#X%Xz.5.%.> d l t w w q.8XwXjXgXFXb.y.=.h.CX<X5XVXDXnXmX{.U.U.G.].F.F lXDX4XnXmXmX    . . 9 p ~ : ",
"GX& = SX& % SX= & 9 uXuXeX*X*XiXyXtXyX0X*XwX;.v.FXc wXhX#.B.wXC.jXb =.k.fXBX5X3XBXBXmX)._.{.U.].G.F MXVXZXzXHXm o   + , # K >.h.",
"SX& SX= = SX* O JX1XtXtX;XeXeX0X%X7X*X0X8X%X9XqX9X9X9Xs.B.1.@.C.g b O.y.fXBX3X2XnXnX2XmX{.MX'.Q.Q.F lXmXnXZXN m X . h.$Xh.~ wX: ",
"7 SX| < SX= 2 AX5XtX0XtX*X0X7X%X8.#Xj.h.,.>.8.3.h.,.,.l e sXsXs.@.b g b ;XDXaX5XaXmX,XmX_.}.'.].G.F.kXaXzX2XmX>XX [ 5.>.o.o.v h.",
"3 GX- uXCX& 4XVX-X1XtX$XeX0X%X5.,.,.c : c > i > : Q t =.h hXu.a.t.g v v 1XaXdXaXMXaXDXDXmX_.'.(.].F.P.AXzXzXA A | R l =.j.k.=XhX",
"GX* - SX& O VX1X1XtX$X0X;X*Xz.5.3.T w > #.z w e w e y z e u.u.u.v t.z b -XnXDXuXaXaXaXDX).{.xXkX(.F.w.xXnXlXH.C M J w V.-.l.b.l ",
"HX3 ZX% O SXzX5X.X;X%X%X%Xz.7.4.~ 5.w e e z e e b O.z w -...@.d.s.y.v K ` zXCXuXaX2XLX,XaXAX2XkX(.F.(.xXcXS G H.q J Q ,.-.-.9X9X",
"= { AX= { 2XuX1Xh.$X$X=X5.4.2.] ' g.l l.h o.1. .g r.w e ..+.C.S.B.k.~ ).).kXZXVXAXaXaX<X,Xg.w.).(.(.K.NXD.D.G ) q l c v h o.c e ",
"6 VXo % 3X2X-X X6.$X;X5.4.E | ) _ P.K gX .y X. . .g X. .e.r.$.B.S.y.] } _ MXZXVXaX2XaXXX.XK q w.w.U.I.cXV ~.H.E.A l l v h #.V.> ",
"SXBX* AX-X|.OX X$X] $Xh.2.R P _ _.P.~ t gXZ.m.m.$.m. .h +.Z.f...t.t.KX_.[.xXzXZXaXaX,XDX< 1 K .XP.(.(.^.J.J.G T.8 1 T c -.-.u.u.",
"VXCXSXvX2X-X&X6.6.6.k R ~ J P F I.Y.9 y.sXZ.sXm.m.Z.y  .e...p.e.b jXFX).[.{.nXnXDXaXDXaX< h.; |.w.G.(.V J.J.V }.; u u c 1.l.#.i.",
"/.9 5 zXvXvX<X@X| [ 9 1 k H D _ U.P.1 l.Z.X.+.$.$.r. .p.X.n.Z.+.S.v y.K R.E.zXBXdXuXdXdXh.! w.|.P.E.~.4 J.J.n V A q i c t o.C.@.",
"5 5 5 B 5XoX{ L L 0 5 p 8 q A G K.).k z #. .g r...sX+.r.O.p.a.t.p.a.s.^ R.[.MXzXBXdXdX$X.Xk.g.)._.E.^.cXC H.V G m ; 1 r d #.o.1.",
"6X| 5 B zX4XOX' |.f 0 L L / m D K.R.K v sXsX .M.A.p.m.i.r.p.i.e.t.p.y.< `.[.MXnXaXdXdXOXg.w.w._.Y.'.^.6XD.H.V V A 2 X u d w y z ",
"HXB Z /.vXvX[ } p A L j q 4XMXm S _ ).Y C.Z.M.A.sXC.i.n.a.M.X.p.f.t.w.w._.[.MXnXaXdXdX4XnXaX).(.!.U.^.V D.G V V N % X + c d d z ",
"B Z J bXbX/.|.R L H A 0 K aXlXm S D _ } y.C.i.Z.t.f.+.i.f.f.p.f.y.^ P w.(.F.R.MXmXnXaX2X3XnX{.(.U.'.].S D.n V G *   +   . @ ,.> ",
"B 5 Z 5 vX*XP } H L p j q 2X4XlXS S F W j.h +.g C.e.h n.d.e.e.f.f.^ P U.U.'._.mXmXnXaXDXAXMX[.(.(.'.'.V V 4 n % O ! # + : : %Xc.",
"Z B B 5 6.&X] H A j f 0 f -X<X4Xm N N P y.b h h p.p.f.r.f.p.p.p.k.w.P _ (.U._.mXDXnXaXnX1XzXE.U.'.'.F % % & # p ;.v ^ b.k.l wXc.",
"J.| ) 6..XW w.H H H j ' j XX,X2XMXm m m y... .X.M.r.r.t.f.d.t.t.k.w.D F.U.Y.{.3 6 aXDXdX3XzXT.U.U.'.C % p a I U ,.o.V.v ,.b.=XV.",
"CXCXOX/.oX|.{ H K } R 9 ! oXoX,XaXA n * w...b b M.f.f.t.e.f.M.y.^ w.( _ 2 2 4 5 6 * dXBX4XlXL.U.I.K.M 0 a r U ;.o.V.B.l.=X=X=X. ",
", &  X{ H } ' H K K ] j g.|.-XoX2X`.N 7 y.t.y.g p.f.t.+.e.M.d.B.[ )._ 2 = * 7 `.* { nXzX3XzXK.'.U._ M 1 i T 3.s z o.V.V.=X: +   ",
"$ 6.|.| R ' J p j ! K j |.|.oXoX,XMXS A [ #.e g e.e.t.+.e.d.e.v w.(._ 2 2 R.E._.`.6 zXmX4XzXT.F.I.K.q s l ;.r w y C.N.c.@ . + . ",
"|.{ ! ! { '  XJ Y j J R { |.|.oXOX,X(.A ^ s.g b t.t.M.e.e.p.f.=.w._.L.2 2 P.'.(.lX3 zXzXzXlXU.Q.I.( L k T w w w V.l.N.wX. @     ",
"|.[ 6./.' k K R j J k R g.|.|.oXXX,X(./ K t.g O...e.r.p.f.f.d.v / (._.2 2 P.Y.'.mX- vXvX2X>XU.I.F ` L c ,.w w b.c.c.v.%X.       ",
"K K ] R k R ! I R R Y p  XoXOX+X>X>XK.P.^ v t.sXp.e.+.e.e.d.d.jX; _.K.2 4 P.].(.mXO vXVXnX/ U.I._ ) Y h.e w c.b.c.k.z.*X.       ",
"{ R J  X! R 4.R 4.] J R  XOXoXoXXX,XF } ^ u.O.f.f.e.+.r.e.f.B.V.; Y.K.4 2 % !.'.mX$ vXuX2X_ T.K.( P $Xt e V.c.v.h.%X$Xp . X   o ",
"J ' .Xk k J 4.2.I a R K 1XOXoXoXOX:XF _ ^ #.e.h t.t.m.e.O.d.f.k.< ` K.G 2 2 '.!.nX$ VX4XlXR.L._ } 6.i y V.l.y.,.h.%X*X@ .   X X ",
"J R | Y I 4.a Y J k Y |  XOX&XOXXX:X/ A =.u.S.e.r.p.m.t.+.d.C.k.; P.K.K.2 2 !.!.mX* 5X,XMXP._ ) 0 u t c.V.,.j.*X=X$X&X. .       ",
"L ] ] R R 6.R a p u J # 0 :XOXOXXXXXD / v @.f.M.C.r.r.m.b t.f.y.- ` F F.2 2 ^.Y.MX* ; MX2X/ } H r l c.V.j.%X0X7X$X*X*X.         ",
"' H H 4.E ] Y a E J R oXO 4X+XXXXX,XP P K y.B.M.i.n.m.p.A.d.t.k.; P.F _ * 3 E.{._.; zX4X2X) j k c wXV.c.9XqX%X*X;XtX&X. +   +   ",
"] J J [ a J k J R J L &XX nXOX+XXXOXD A ^ y.t.r.$.r.e.B.A.u.s.^ $ `.D D 2 2 ` 2 * 6 3X5X5XJ c c wXb.c.0XrXiXiXtXtX;X. .   +     ",
"} ' J j p ~ 6.p p H <XOX+ 4XOXoX,X,X/ P K =.t.e.e.M.p.i.sX@.b.jX= m 2 A A 4 4 2 * 2X5X-X=X*.1.<.9X*.7X0XyX7XeXiX;XOX.           ",
"' J p j ] Y u p J 1XoX<X<X2XnX5X).).D A H ^ a.r.r.X.M.M.e.#.V.: 6 * 4 ` N P.2 `.} <X5X0X9X1.<.V.=.c.rXtXiXiXiX1X<X9 .           ",
"W W 0 H K j R J P <X-X:X4XX 3XoX-Xw.A A H h.t.t.t.r.C.A.t.S.hX$ - 7 P.T.H.V E.L.` ,Xh.&.-.h C.<.v.;X0XeXpXCXvX;X&X@ .           ",
"f J 0 p ] R J R KXvXAXAXSX; aX4XoX,X_ m H [ t.A.M.A.hXf.B.y.wX&XaX_.P.K.S G K.K.L.<X4.t h wXo.l.7X0XrXeXrXLXvX5X.           X   "
};
