/* XPM */
static char *_634c8f9173445ddec3c99e2a532aebelMc3qsmAPXSJchO0[] = {
/* columns rows colors chars-per-pixel */
"64 64 256 2 ",
"   c #040204",
".  c #0B0204",
"X  c #05040B",
"o  c #0B050B",
"O  c #060A0C",
"+  c #0C090D",
"@  c #070A05",
"#  c #130303",
"$  c #1A0405",
"%  c #12060B",
"&  c #130A0D",
"*  c #1B0A0C",
"=  c #180906",
"-  c #19150A",
";  c #050611",
":  c #0C0513",
">  c #050B13",
",  c #0C0B13",
"<  c #050C1C",
"1  c #0C0C1A",
"2  c #0B061A",
"3  c #130B12",
"4  c #1A0D13",
"5  c #120C1B",
"6  c #160817",
"7  c #02131C",
"8  c #0C121D",
"9  c #081214",
"0  c #121315",
"q  c #1D1214",
"w  c #13121B",
"e  c #1C131B",
"r  c #191A15",
"t  c #061305",
"y  c #240502",
"u  c #230C0C",
"i  c #290B0A",
"p  c #29120D",
"a  c #381609",
"s  c #230D12",
"d  c #260A17",
"f  c #231214",
"g  c #2B1413",
"h  c #22141B",
"j  c #2C1A1C",
"k  c #281A19",
"l  c #341513",
"z  c #341B14",
"x  c #321B1B",
"c  c #391C18",
"v  c #360C0A",
"b  c #192212",
"n  c #292619",
"m  c #392419",
"M  c #342F16",
"N  c #090D23",
"B  c #140D24",
"V  c #0D142C",
"C  c #061526",
"Z  c #141323",
"A  c #1B1423",
"S  c #181827",
"D  c #0A1A36",
"F  c #161733",
"G  c #231C24",
"H  c #261725",
"J  c #361D24",
"K  c #271E33",
"L  c #261225",
"P  c #112832",
"I  c #2A2528",
"U  c #3C2324",
"Y  c #34252B",
"T  c #382728",
"R  c #383628",
"E  c #292636",
"W  c #3C2A33",
"Q  c #352938",
"!  c #373639",
"~  c #2A302C",
"^  c #451615",
"/  c #4E100E",
"(  c #44261C",
")  c #513615",
"_  c #461C24",
"`  c #442B2B",
"'  c #4B2D2B",
"]  c #472824",
"[  c #582925",
"{  c #483529",
"}  c #55342A",
"|  c #462C34",
" . c #493638",
".. c #583A37",
"X. c #5E2F37",
"o. c #643E39",
"O. c #6B2D2A",
"+. c #6B1F14",
"@. c #394C33",
"#. c #5A413B",
"$. c #504D32",
"%. c #67463C",
"&. c #7A4A38",
"*. c #6C4D30",
"=. c #5C5128",
"-. c #0A2F48",
";. c #372C42",
":. c #3B3844",
">. c #483846",
",. c #543B46",
"<. c #4E3E52",
"1. c #613E42",
"2. c #3C4C4C",
"3. c #2D6974",
"4. c #165667",
"5. c #474449",
"6. c #5A4446",
"7. c #4B4955",
"8. c #554954",
"9. c #575559",
"0. c #565849",
"q. c #684846",
"w. c #76554A",
"e. c #644B53",
"r. c #795956",
"t. c #6F534F",
"y. c #546551",
"u. c #706A4F",
"i. c #5D5A64",
"p. c #4F5C62",
"a. c #665B68",
"s. c #665C74",
"d. c #506767",
"f. c #766569",
"g. c #78767C",
"h. c #6C6B6E",
"j. c #8F6B33",
"k. c #94613A",
"l. c #855748",
"z. c #955C47",
"x. c #875D54",
"c. c #8E524D",
"v. c #876358",
"b. c #986858",
"n. c #94694D",
"m. c #A56B58",
"M. c #A7745C",
"N. c #AB7056",
"B. c #886967",
"V. c #966D64",
"C. c #9B7469",
"Z. c #897875",
"A. c #A87865",
"S. c #B57A67",
"D. c #A6776E",
"F. c #985C64",
"G. c #6F8874",
"H. c #998577",
"J. c #BA846D",
"K. c #AA8476",
"L. c #B78876",
"P. c #B18B75",
"I. c #818A5D",
"U. c #C48C78",
"Y. c #C9957F",
"T. c #C39C65",
"R. c #D5AE5F",
"E. c #E8C571",
"W. c #257987",
"Q. c #517684",
"!. c #757883",
"~. c #8A7D86",
"^. c #3A8C98",
"/. c #3CA2A1",
"(. c #3D9DA6",
"). c #488896",
"_. c #519399",
"`. c #719592",
"'. c #58A39C",
"]. c #77A597",
"[. c #4C98A7",
"{. c #56AEAC",
"}. c #79A7A8",
"|. c #6AB8B8",
" X c #76BBB9",
".X c #6DAEA7",
"XX c #6698A1",
"oX c #76C3BE",
"OX c #6EBCC4",
"+X c #5CBEC1",
"@X c #6BC3C4",
"#X c #78C7C8",
"$X c #7ACBD2",
"%X c #7CD3CE",
"&X c #968487",
"*X c #9C9498",
"=X c #918A8F",
"-X c #A58A89",
";X c #B89688",
":X c #AE9291",
">X c #A5B497",
",X c #AB9DA6",
"<X c #8AB5A8",
"1X c #88BAB5",
"2X c #93B4B1",
"3X c #B2ADAE",
"4X c #8AA294",
"5X c #C99986",
"6X c #D39789",
"7X c #D5A48C",
"8X c #CAA69A",
"9X c #D9A997",
"0X c #CCA892",
"qX c #E4B49C",
"wX c #E3AA98",
"eX c #DBB8A9",
"rX c #CCB1AF",
"tX c #E9BAA6",
"yX c #ECB7AD",
"uX c #92C7B9",
"iX c #ACC6B4",
"pX c #D9C4B4",
"aX c #E9C8B7",
"sX c #F6CAB7",
"dX c #F7D4BC",
"fX c #F1CAB0",
"gX c #F8E5B2",
"hX c #E0C799",
"jX c #9FBCC3",
"kX c #84CCCB",
"lX c #87C8C7",
"zX c #9AC9C9",
"xX c #88D2CC",
"cX c #86CDD2",
"vX c #8CD4D3",
"bX c #87D5D6",
"nX c #93D5D5",
"mX c #96CDD3",
"MX c #A7CACD",
"NX c #A5E7EC",
"BX c #ECD3C9",
"VX c #F9D8C6",
"CX c #F8DDD7",
"ZX c #E9CFCC",
"AX c #FCE4CA",
"SX c #FDE6D7",
"DX c #FEF5D7",
"FX c #F9DFE1",
"GX c #D7EEEC",
"HX c #FCECE4",
"JX c #FCF6EA",
"KX c #FEFCFF",
"LX c #FAFAF8",
"PX c #E8F5F1",
"IX c #DAD1D7",
"UX c #E1B9C2",
/* pixels */
"f f f q 4 4 5 3 : , , O : , O X O o X + X X o , + + X , X o o , o X X o o % . o @ . & @   @ + o + o : o X X > X   . . @ o + o o ",
"H k h q 4 6 3 , , , , : , > > + : > , X O + O , + + + + + o o o X : o .   . & q + @   +     o   o X X , X     > O + + X     X o ",
"h s 4 & & 3 % , , , , , , , + + X o o o , , + + + + , X + o + o X X o + 3 + o   + +   > o o , : X + X ; ; 2 ; ; X X X , , > : X ",
"s 6 & & 3 3 3 6 3 : , , , , , , , o : : + + o + , + + X o o o o 0 o       . O + O X X X , X X o X 3 X , X 2 X X 1 2 ; X X X ; ; ",
"4 % % & 6 3 3 , , : 3 , + , + , + 3 + + o o o 3 + + o o   X X + . @ o + + o X O X X O X X : + 6 . % . o o L L 5 5 Z A 1 2 X ; > ",
"* * * & 6 & % : 3 3 3 : , 3 3 + + : 3 o o o + + . + + 3 o O   o .   .   o X o O X O X O o & o . # # g #.6.6.>.>.Q Q Q I w 1 ; ; ",
"f k h f s q q e 3 3 & 3 3 & + % + 3 + : o : % + % + + % + + X X +       o > X X X +   3 o . 6 y %.v.C.B.r.r.r.q.e.6. .G A w 1 > ",
"x x k f 4 f f 4 4 * 3 3 % 3 % + + : % & : % + : + o %   o X +       X o X X X + X + o . # $ t.C.D.K.A.A.A.b.v.w.o. .W H A A Z 1 ",
"U m z n j g - f f 4 = 4 4 . 4 & 3 + 3 % o 3 & % % o o o o + o   @   O + o X X X % . . $ # Z.;X;XJ.S.N.S.n.l.n.x.q.' 6.E G H N B ",
"z m z z p g p f s s q q 4 % 4 & 3 + + 3 % % & 3 o . % o o : o   + @   X o + o +   . # # 8XrXtX;XU.U.S.N.z.z.z.n.o.q. .Q K S B V ",
"] m m m l p p k s - 4 * & 4 4 3 4 , 3 + : % : % % o + o o . o     X + o     . & = = # -XrXtXtXtX7XU.S.N.N.z.l.n.q.` T ! K K ;.N ",
"( m ( a z m p p f T  .Y W e , 3 w 3 3 3 % % % % % % & % o o o o + +   .   o q H = . p eXtXaXfXyXwX6X7XS.z.N.&.n.%.#. .Q K Q F F ",
"( m ( m m } p ..= = & Y 3 I S o 3 3 3 3 4 3 * 3 % % 3 3 % + 3 , + .   & h k 4 # = = 3XVXaXVXVXyXyXwXY.S.N.z.z.v.r.6.W Q ;.;.Q K ",
") ( m a m 0.m &Xk W e 0 o 1 1 1 , , + 3 3 4 3 4 & & & 4 3 % & + + 0 4 3 % % = * = u ZXSXAXVXaXdX7XfXY.N.z.l.v.%. .6.8.Q K L 6 % ",
"( ( a w.q.t.#.= = >.q , w 1 1 , , 3 , 3 q q 3 4 4 % 4 % % o o o % % o = 4 s * * = rXSXBXCXCXtXaXM.wXY.Y.l.z.x.x.C.6.| d W g l J ",
"( ) ( $.{ { { z  .B.T u 4 : 5 1 , 3 + , e 3 % 3 % o % 3 % o o o .   . o o # = = = BXBXSXSXBXaXVXfXhXJ.S.*.l.K.q.y B.8.J | J q.:X",
"m ] ' ] z u { v.aXeXK.K.w.` 3 1 : 3 O > + 3 q + + > + , & + > X @   X o o o % = - rXCXCXCXSXdXdXK.l.v.w.&.a &.M.w.r.| | ` ` -X;X",
"( ( ( } m p pXdXfXqX5XJ.b.o.J 6 3 w > , , 0 3 , , + > + , , > > t 9 O o o o . . = pXBXCXBXBXaX&.=.L.H.{ { &.V.C.l.%.,.| W l q.S.",
"M z ` R =.pXgXdXsXfX7XL.m.l.` d 5 5 : 1 : 6 & 3 , , > , 3 3 1 9 9 > > 3 % : o @ # rXVXVXBXaX;Xa =.&.y a ..K.A.&.q.q.q.>.| J q.x.",
"m n f H.w.dXAXAXdXfXhXY.m.&.J d L A 2 5 2 : 6 : > , 0 , , 2 > , > > , : 5 , > + - B.VXsXfX[ A.[ b.dX} 5Xb.P.qXL.M.r.e.,.>.J 1.:X",
"m m p 0.pXgXAXVXdXfXqXY.S.l._ L L A 2 1 , 2 , 1 9 1 > 1 1 , , , 6 6 2 1 < ; < ; @ m 0X9X5X&.o.K.VXJ.9X5XL.qXqXS.b.x.e.| <.>.| &X",
"c z p M 0XgXVXAXaXqXfXP.b.&.| L L A , 1 , 1 8 , , > , , , , , , 6 2 2 < N N N < & *Xw.} O.qXO./ S.6XdXwX7XtX7XM.b.x.e.>.>.>.,.J ",
"i m p K.DXVXhXVXdX0XdX5XO.q.,.H e 5 2 0 1 0 8 1 , 1 1 , 3 1 , 1 1 1 N N V V V V B L :Xa yX6Xm.&.U.wXyXsXqX&.7XT.D.l.X.,.<.<.>.>.",
"4 8.m rXLXBXeXL.K.eX9XV.X.i H G L h 3 , > 8 8 1 1 2 5 5 1 1 > 7 < N V D V V V V V B d rXyXS.m.N.S.m.l.Y.fXqXY.U.V.l.X.>.,.,.;._ ",
"7.2.Y a.LX>X8X0X8XSX' y i B.4 Y h e 6 3 1 S 8 N 1 N 2 B C N N C V D D F V V S B B 2 : f aX5Xz.S.J.yXtXsXfX7XJ.S.S.K.q.,.e.<.<.<.",
"zX`.b 5.KXLXaXeXaXrXl d ,X6.{ = 4 H A 5 < V V V F D F D D -.D D D D E B N : o : 5 A 0 m rXS.c.Y.z.m.sXtXtX7XM.M.L.D.r.r.e.e.,.Q ",
"mXmX1X3.LXLXDXSXLX:XH L H.K...p A G N 1 C V D D F -.-.-.-.-.-.-.-.-.D ; o & * s Y h I UXVXV.c.x.c.+.fXqXqX7XM.A.5XV.V.t.e.<.<.;.",
"mXlX1X<XLXJXDXDXJXt.Y L B.K.r.U H E N N C -.-.-.-.-.-.4.4.4.4.3.^.^.7 C I 6.0.h.3 ! ~ $.:Xo.v O.b.6XY.7X7XwXU.m.5XD.x.q.r.r.<.K ",
"zXuXuX].PXLXSXpXHXr.L d [ V.q.` H K 1 < D 3.3.W.[.[.[.+X+XOXOXOX%XvX-.2.d.h.P 9 P `.t 2X>XpXU.U.J.M.S.A.k.L.Y.A.O.-XF.X.,.s.<.K ",
"JX@.@.4XLXJXAXaXHXz d d c o.| L J ;.F C XX|.@X+XOX$XOX$XOXOX$XlXxXuXMXMXMXMXMXzXxXP 1X1X<X3XM.z.S.m.M.z.k.l.7XA.b.8XB.[ ,.;.;.L ",
"DXgXM $.JXLXSXdXaX8Xq.^ X.B.K L L E < P .X|.|.oX$XNX$XbXcXcXmXcXxXxXxXzXmXmXlXmXuXP oXoXoXH.P.m.U.z.z.z.[ U.J.5Xl.V.K.d e.;.B B ",
"DXgXgXgXDXJXAXeXl.[ X.[ z t.L H Z P P }.'.|.@X@XbXbXbXbXcXcXnXcXvXkXcXvXvXcXnXkXxXxXoXoXoXuXZXm./ 5X7XY.L.6X9XwXo.v 8Xd 6 L F F ",
"E.gXE.j.hXDX;XVX6XF.X.| :XI | A P d.'.'.{..X{.oX%XoXoXxXxX%XxX%XnXbXnXbXbXbXmX#XlXkX$XcX#X XGXDXAXVXyXeXtXeX8XU.w._ :Xd L B K V ",
"I.) R.E.T.AXAXAXV.F.[ 6.6.J 6 K V `.'.'..XoXoXoXoXnXxXxXoXnX%XxX$X%XnXvXcXvXlXvXvXbX$X$X#X X<XPXDXSXVXVXVXpXZX8Xw.q.r.,.;.B B -.",
") j.R.j.j./ n.K.b.b.v.t.! h A 6 r b ].'.]..X.X<XuXuXiXnXuXvXxXxXxXbXbXcXmXxXvXkX%X$XbX-.oXoX XGXDXHXSXVXSXBXeXv.g n s 8.Q F F K ",
"j.) j.j.n.) ) v.b.l.t...& 5 A 5 R R t G.2.G.y.G.H.>XG.H.<XuXiXuXuXoXxXkXmXvXxXkX%XbX$X X#X#X.X<XPXHXHXZXCX:X&X,.% + f.6.E B E ;.",
") *.) *.i ) u j ` J U 4 1 N Z w ~ R t t @.M =.u.y.=.y.I.u.u.G.>X@.].uX%X%XcX%X%X$XkXcXOXOXOXOX}.LXHXSXZX&Xf.W 6 8 > 8.8.9.K K >.",
") ) =.) =  .G 6 4 4 6 2 1 V Z w R M n @ b R R M =.M =.=.u.=.=.I.b G.G.uXlXkXoX#XcXcXlX$XcX+X$X|.PXGXiXb ! 5 >.5 > Q g.a.f.E <.8.",
"M R ) M R r r t 0 3 5 Z < 8 1 + n R ~ t @ - { R M M M b 0.$.{ 0.t y.y.d.G.<XoXlXNXlXcXOXOX@X+X{.{..X'.'.'.XX`.7 5 =Xg.L s.E :.:.",
"- M ) ) n & ! I & L 2 B Z Z w 3 - n R @ - t R n b b R b 0.5.$.0.@ n M 0.p.p.2XGXLX2X1X1X|.|.|.{.{.[./././._.D C 2 s.s.; ;.;.;.7.",
"( M m ( - r n ! & h e 2 5 Z 2 5 & n R . 4 . I I n b 7 t r   0   . @ - r :.4 LXUXF./ ,.*X=X}.XX[.(.(.(.^.^._.C N 5 8.!.: Q ;.a.=X",
"rX{ { n { r - ! n % e 1 ; 5 : 5 + G n - % 4 r S 7 ].}.9 7 p.F 5   , + d.w 3 ` [ O.6XO.FXUXs.!.[.[.^.^.^.).).C 7 5.8.=Xk 7.=X,XrX",
";Xv.H...x 4 r I I - 0 I & 9 , 3 , & R r 0 @ S 7 )._.[.).3.C _._.C 2.> 8 > + . i / O./ c.6XU.,.!.).).).3.C C < 7.h.! *X! ~.3XIX,X",
"dXsXaXB.` K o w G ~ t 0 t O P 2 2 > 0 O 9 8 > Q.^.^.^.).Q.C 7 Q.Q.7 `.P 2.+   # i / +.+.+.wXc.J Q.Q.C C N < ;.7.7.5.h.H.rXLX,X*X",
"V.V.HXZXW ;.6 B 7.7.1 9 I 8 N F 1 , 3 , S N C 9 7 7 7 7 7 O 9 9 PX7 7 7 < ; 6 6 $ y ^ S.+.+.O.d E D N N C 8 2.:.>.! 6.3XHX3X*X&X",
"X.1.rXFXrXB B <.p.i.g.8 8 8 V V 8 X 2 : , Z 8 Z 2 8 > , + 0 O 9 0 O O 0 1 5 : o o . c ^ / / _ d N K P C 8 7.:.8 ! W H :X*X&X*Xg.",
"o.1.J HXZXf.6 B s.A 7.9.0 1 N N > 9 : ; w , > , Z ; 2 5 : 6 - + + e & I ! 3XG w : A Y u J _ $ Y :.~ 5.1 ; N 8 2 E ! o 3X,X&XH.h.",
":X1.l LXHX8XL 6 ; :. .k a.! 5 1 > 9 , S ~ O r > o 5 : 6 d ,.6. . . .U  .iXh.n > : 4 = $ $ $ % % + I , 2 A 5 : , Y >.6 *X*X*Xg.d.",
"ZXX...$ HXrXL 2 2 A S 9.:.3XK N , 9 1 O ~ , ! I * # = ,.6.v q.#.' #.' y #.m t.1.#.#.#...c z .... .{ T T | x u s U | Y ~.~.a.h.a.",
"CXx.,.y LX,X>.d % 8.i.! 7.7.;.2 , O X w I ! ! 3X& # ] ..t.x.( ....r.y q...[ q.l.%.*.w...c q.} o.z ..] c ] ^ y 6.` R ` 8.a.7.7.5.",
"FXD.q.y r.UX-XU KXi.i.>.;.7.i.:., 8 > , h.9.! $.* ` z } ..v.c ..w.y [ ] v.o.x.B.( w.( %.} c o.} ] ..i ' l i ] q.`  .W Q ! E Q ;.",
"HX:Xo.l -XLX,X,.,.LXIX9.9.7.a.>.8.w g., 7.I 9., W  ...J l [ B.^ ] q.l %.q.( ] w.r.' #.v q.' ] %.i ] c ' i y | J Y Y s Y I E E K ",
"FXUXX.J d ZX*XL % h.g.KXi.a.,X:.| <.p.A g.~ 0 e Y s ..1.X.] ' ..y t.B.] ] r.o.q.o.c q.p ] B.i q.^ ..y } ] y c x U s 6 5 S S Z Z ",
"CX&X* $ d % J 4 & & o 9.KX!.>.LXi.8.<.E   i.! o % j J _ B.x ] B.y z r.q.l o._ l r.i ....' t.g ' ....' c x i g J j H # & 5 5 N Z ",
"+ 3 % 3 % >.K : : 3 : X I KXPX!.KXKX:.2.~ X 2.  & # 4 J ` ' U ....] m v.g q.,.] ` m c 6.e.z 6.l ( c i ' l ' c g x J # 3 6 : 5 6 ",
", X , X ; 2 ; : ; : X > 2 :.3X,X=X7.KXG 8 :.  3   % # * J | x J ` ..u g ..i v ..u { u ` t.g | ] ' ' x g J ` ` u Y * H s 3 . : : ",
"O > O > > ; 2 > ; X X > O O 1 iX!.`.9.KX5   w         . # # q.$ g  .i u ` U l J u  .| T i U s | u i x s u p u U i T u H f j 6 & ",
"0   + > ; > ; X 1 , X X   X X 5 3X,X*Xa.G o X   O         * s ` ` j u 6.x J  .* s # k # = 4 g | Y f j J $ # x g g i J u x # j s ",
"& = . k X + O >       @ @   o   O KXh.o X   o       @     4 u s # . J T $ J = $ . u * .  .% s # s f = $ J f s $ j = z $ $ j * s ",
"g u * q           +   @           0     . X o ,   O   .   . = * # = . = * # f Y & * . q k = j f Y j q f # g * u $ s = * u x $ = ",
"] ' # g . @ o             @         +     q + 3           & q % . 4 % q G . . . . & &   # T # 4 . G . f q . = 4 $ = * # s = = s ",
"l p # # .       O                   . & & h   q ~ 3       . #   . . # o . % 4 % h . q   q s . = f . & . f . s # 4 . s = . f % h ",
"g p . &   X X X   X X   o o X , + r q . . . % . . H o . # - . &   . o . h q . .   & . & . . k = 4 % * 3 . % h 4 % 4 & e * 6 e o ",
"..g f =   X X X O     X   3   I q # & & 4   q . . & & & q .   q   @ - . + o 4 o . - o & . q = # & & . & . . 4 h % e + % e o e 6 "
};
